<mxfile host="app.diagrams.net" modified="2023-04-03T15:02:12.153Z" agent="Mozilla/5.0 (Windows NT 10.0; Win64; x64) AppleWebKit/537.36 (KHTML, like Gecko) Chrome/111.0.0.0 Safari/537.36 Edg/111.0.1661.62" etag="uI6h1EpelHQYdRd7tYtB" version="21.1.4" type="github">
  <diagram name="Page-1" id="AJq2DrDmC_UFO2WliYAh">
    <mxGraphModel dx="823" dy="476" grid="1" gridSize="10" guides="1" tooltips="1" connect="1" arrows="1" fold="1" page="1" pageScale="1" pageWidth="827" pageHeight="1169" math="0" shadow="0">
      <root>
        <mxCell id="0" />
        <mxCell id="1" parent="0" />
        <mxCell id="sYnFqod2CGyb5W8vaiL5-3" value="req&amp;nbsp; &amp;nbsp; [Model]&amp;nbsp; &amp;nbsp; DRAGSTER&amp;nbsp; &amp;nbsp; &amp;nbsp; [Cahier de charge]" style="shape=umlFrame;whiteSpace=wrap;html=1;pointerEvents=0;width=300;height=20;" vertex="1" parent="1">
          <mxGeometry x="20" y="10" width="780" height="470" as="geometry" />
        </mxCell>
        <mxCell id="sYnFqod2CGyb5W8vaiL5-4" value="&lt;p style=&quot;margin: 4px 0px 0px; text-align: center; font-size: 7px;&quot;&gt;&lt;i style=&quot;font-size: 7px;&quot;&gt;&amp;lt;&amp;lt;requirement&amp;gt;&amp;gt;&lt;/i&gt;&lt;br style=&quot;font-size: 7px;&quot;&gt;Autonome&lt;br style=&quot;font-size: 7px;&quot;&gt;&lt;/p&gt;&lt;hr style=&quot;font-size: 7px;&quot;&gt;&lt;p style=&quot;margin: 0px 0px 0px 4px; font-size: 7px;&quot;&gt;&lt;br style=&quot;font-size: 7px;&quot;&gt;&lt;/p&gt;" style="verticalAlign=top;align=left;overflow=fill;fontSize=7;fontFamily=Helvetica;html=1;whiteSpace=wrap;" vertex="1" parent="1">
          <mxGeometry x="90" y="50" width="140" height="70" as="geometry" />
        </mxCell>
        <mxCell id="sYnFqod2CGyb5W8vaiL5-5" value="&lt;p style=&quot;margin: 4px 0px 0px; text-align: center; font-size: 7px;&quot;&gt;&lt;i style=&quot;font-size: 7px;&quot;&gt;&amp;lt;&amp;lt;requirement&amp;gt;&amp;gt;&lt;/i&gt;&lt;br style=&quot;font-size: 7px;&quot;&gt;Avancer&lt;br style=&quot;font-size: 7px;&quot;&gt;&lt;/p&gt;&lt;hr style=&quot;font-size: 7px;&quot;&gt;&lt;p style=&quot;margin: 0px 0px 0px 4px; font-size: 7px;&quot;&gt;&lt;br style=&quot;font-size: 7px;&quot;&gt;&lt;/p&gt;" style="verticalAlign=top;align=left;overflow=fill;fontSize=7;fontFamily=Helvetica;html=1;whiteSpace=wrap;" vertex="1" parent="1">
          <mxGeometry x="340" y="160" width="150" height="90" as="geometry" />
        </mxCell>
        <mxCell id="sYnFqod2CGyb5W8vaiL5-6" value="&lt;p style=&quot;margin: 4px 0px 0px; text-align: center; font-size: 7px;&quot;&gt;&lt;i style=&quot;font-size: 7px;&quot;&gt;&amp;lt;&amp;lt;requirement&amp;gt;&amp;gt;&lt;/i&gt;&lt;br style=&quot;font-size: 7px;&quot;&gt;Autonome&lt;br style=&quot;font-size: 7px;&quot;&gt;&lt;/p&gt;&lt;hr style=&quot;font-size: 7px;&quot;&gt;&lt;p style=&quot;margin: 0px 0px 0px 4px; font-size: 7px;&quot;&gt;&lt;br style=&quot;font-size: 7px;&quot;&gt;&lt;/p&gt;" style="verticalAlign=top;align=left;overflow=fill;fontSize=7;fontFamily=Helvetica;html=1;whiteSpace=wrap;" vertex="1" parent="1">
          <mxGeometry x="620" y="130" width="140" height="70" as="geometry" />
        </mxCell>
        <mxCell id="sYnFqod2CGyb5W8vaiL5-7" value="&lt;p style=&quot;margin: 4px 0px 0px; text-align: center; font-size: 7px;&quot;&gt;&lt;i style=&quot;font-size: 7px;&quot;&gt;&amp;lt;&amp;lt;requirement&amp;gt;&amp;gt;&lt;/i&gt;&lt;br style=&quot;font-size: 7px;&quot;&gt;Tourner à droite à gauche&lt;/p&gt;&lt;hr style=&quot;font-size: 7px;&quot;&gt;&lt;p style=&quot;margin: 0px 0px 0px 4px; font-size: 7px;&quot;&gt;&lt;br style=&quot;font-size: 7px;&quot;&gt;&lt;/p&gt;" style="verticalAlign=top;align=left;overflow=fill;fontSize=7;fontFamily=Helvetica;html=1;whiteSpace=wrap;" vertex="1" parent="1">
          <mxGeometry x="390" y="20" width="140" height="70" as="geometry" />
        </mxCell>
        <mxCell id="sYnFqod2CGyb5W8vaiL5-13" value="&lt;p style=&quot;margin: 4px 0px 0px; text-align: center; font-size: 7px;&quot;&gt;&lt;i style=&quot;font-size: 7px;&quot;&gt;&amp;lt;&amp;lt;requirement&amp;gt;&amp;gt;&lt;/i&gt;&lt;/p&gt;&lt;p style=&quot;margin: 4px 0px 0px; text-align: center; font-size: 7px;&quot;&gt;&lt;span style=&quot;color: rgb(51, 51, 51); font-family: &amp;quot;Helvetica Neue&amp;quot;, Helvetica, Arial, sans-serif; background-color: initial; text-align: left;&quot;&gt;Avancer de 10m le plus vite possible&lt;/span&gt;&lt;/p&gt;&lt;hr style=&quot;font-size: 7px;&quot;&gt;&lt;p style=&quot;margin: 0px 0px 0px 4px; font-size: 7px;&quot;&gt;&lt;br style=&quot;font-size: 7px;&quot;&gt;&lt;/p&gt;" style="verticalAlign=top;align=left;overflow=fill;fontSize=7;fontFamily=Helvetica;html=1;whiteSpace=wrap;" vertex="1" parent="1">
          <mxGeometry x="130" y="280" width="150" height="70" as="geometry" />
        </mxCell>
      </root>
    </mxGraphModel>
  </diagram>
</mxfile>
